<svg xmlns="http://www.w3.org/2000/svg" width="256" height="256" viewBox="0 0 256 256">
  <rect width="256" height="256" fill="#dddddd"/>
  <g fill="#c9c9c9" opacity="0.7">
    <circle cx="18" cy="22" r="1"/>
    <circle cx="40" cy="35" r="0.8"/>
    <circle cx="75" cy="28" r="0.9"/>
    <circle cx="100" cy="45" r="0.8"/>
    <circle cx="135" cy="30" r="1"/>
    <circle cx="165" cy="42" r="0.9"/>
    <circle cx="190" cy="24" r="0.8"/>
    <circle cx="220" cy="38" r="0.9"/>
    <circle cx="245" cy="30" r="0.8"/>
  </g>
  <g fill="#bdbdbd" opacity="0.6">
    <circle cx="25" cy="60" r="1"/>
    <circle cx="55" cy="70" r="0.8"/>
    <circle cx="85" cy="58" r="0.9"/>
    <circle cx="115" cy="75" r="1"/>
    <circle cx="150" cy="65" r="0.9"/>
    <circle cx="185" cy="70" r="0.8"/>
    <circle cx="215" cy="60" r="0.9"/>
    <circle cx="240" cy="72" r="0.8"/>
  </g>
  <g fill="#c2c2c2" opacity="0.6">
    <circle cx="30" cy="120" r="1"/>
    <circle cx="65" cy="110" r="0.8"/>
    <circle cx="95" cy="130" r="0.9"/>
    <circle cx="135" cy="118" r="0.8"/>
    <circle cx="170" cy="125" r="0.9"/>
    <circle cx="205" cy="115" r="0.8"/>
    <circle cx="235" cy="130" r="0.9"/>
  </g>
</svg>
