<svg xmlns="http://www.w3.org/2000/svg" width="256" height="256" viewBox="0 0 256 256">
  <rect width="256" height="256" fill="#cfcfcf"/>
  <!-- light speckles -->
  <g fill="#e6e6e6" opacity="0.8">
    <circle cx="20" cy="30" r="2"/>
    <circle cx="60" cy="50" r="1.6"/>
    <circle cx="90" cy="20" r="1.8"/>
    <circle cx="130" cy="40" r="1.4"/>
    <circle cx="170" cy="25" r="2.1"/>
    <circle cx="210" cy="35" r="1.5"/>
    <circle cx="240" cy="60" r="1.7"/>
    <circle cx="15" cy="120" r="2"/>
    <circle cx="70" cy="110" r="1.5"/>
    <circle cx="115" cy="95" r="1.7"/>
    <circle cx="160" cy="100" r="1.9"/>
    <circle cx="210" cy="120" r="1.6"/>
    <circle cx="250" cy="100" r="1.8"/>
    <circle cx="30" cy="200" r="1.7"/>
    <circle cx="80" cy="180" r="1.6"/>
    <circle cx="120" cy="210" r="2"/>
    <circle cx="170" cy="190" r="1.6"/>
    <circle cx="220" cy="210" r="1.8"/>
  </g>
  <!-- dark speckles -->
  <g fill="#8a8a8a" opacity="0.9">
    <circle cx="40" cy="60" r="1.7"/>
    <circle cx="75" cy="35" r="1.2"/>
    <circle cx="105" cy="55" r="1.4"/>
    <circle cx="150" cy="30" r="1.6"/>
    <circle cx="185" cy="55" r="1.3"/>
    <circle cx="225" cy="45" r="1.5"/>
    <circle cx="50" cy="130" r="1.7"/>
    <circle cx="95" cy="125" r="1.4"/>
    <circle cx="140" cy="140" r="1.6"/>
    <circle cx="180" cy="130" r="1.4"/>
    <circle cx="230" cy="150" r="1.6"/>
    <circle cx="60" cy="210" r="1.3"/>
    <circle cx="100" cy="190" r="1.5"/>
    <circle cx="150" cy="210" r="1.7"/>
    <circle cx="200" cy="185" r="1.3"/>
  </g>
</svg>
