<svg xmlns="http://www.w3.org/2000/svg" width="256" height="256" viewBox="0 0 256 256">
  <defs>
    <linearGradient id="bg" x1="0" x2="0" y1="0" y2="1">
      <stop offset="0%" stop-color="#f7f7f7"/>
      <stop offset="100%" stop-color="#eeeeee"/>
    </linearGradient>
    <filter id="soft" x="-10%" y="-10%" width="120%" height="120%">
      <feGaussianBlur in="SourceGraphic" stdDeviation="0.6"/>
    </filter>
  </defs>
  <rect width="256" height="256" fill="url(#bg)"/>
  <!-- subtle veins -->
  <g stroke="#cfcfcf" stroke-width="1.2" fill="none" opacity="0.65" filter="url(#soft)">
    <path d="M-20 40 C 10 30, 40 45, 70 40 S 130 30, 160 45 210 55, 280 40"/>
    <path d="M-10 120 C 30 110, 60 140, 90 130 S 150 110, 190 130 230 150, 270 140"/>
    <path d="M-30 200 C 10 190, 50 210, 80 200 S 140 180, 170 200 220 220, 290 210"/>
  </g>
  <g stroke="#dcdcdc" stroke-width="0.8" fill="none" opacity="0.55" filter="url(#soft)">
    <path d="M-15 10 C 20 5, 45 20, 80 15 S 145 5, 180 20 230 30, 270 15"/>
    <path d="M-25 70 C 20 65, 55 80, 95 75 S 155 60, 190 80 235 95, 280 85"/>
  </g>
</svg>
