<svg xmlns="http://www.w3.org/2000/svg" width="256" height="256" viewBox="0 0 256 256">
  <rect width="256" height="256" fill="#f2f2f2"/>
  <g fill="#ffffff" opacity="0.9">
    <circle cx="20" cy="20" r="2.2"/>
    <circle cx="70" cy="30" r="1.8"/>
    <circle cx="120" cy="25" r="2.1"/>
    <circle cx="170" cy="35" r="2.0"/>
    <circle cx="220" cy="22" r="1.9"/>
    <circle cx="40" cy="90" r="2.0"/>
    <circle cx="90" cy="80" r="1.7"/>
    <circle cx="140" cy="95" r="2.1"/>
    <circle cx="180" cy="85" r="1.8"/>
    <circle cx="230" cy="100" r="2.0"/>
    <circle cx="50" cy="170" r="2.1"/>
    <circle cx="100" cy="160" r="1.8"/>
    <circle cx="150" cy="175" r="2.0"/>
    <circle cx="200" cy="165" r="1.9"/>
  </g>
  <g fill="#d9d9d9" opacity="0.9">
    <circle cx="35" cy="40" r="1.6"/>
    <circle cx="85" cy="50" r="1.3"/>
    <circle cx="135" cy="45" r="1.5"/>
    <circle cx="185" cy="55" r="1.4"/>
    <circle cx="235" cy="48" r="1.6"/>
    <circle cx="60" cy="120" r="1.5"/>
    <circle cx="110" cy="110" r="1.3"/>
    <circle cx="160" cy="125" r="1.6"/>
    <circle cx="205" cy="115" r="1.4"/>
    <circle cx="70" cy="200" r="1.5"/>
    <circle cx="120" cy="190" r="1.3"/>
    <circle cx="170" cy="205" r="1.6"/>
    <circle cx="215" cy="195" r="1.4"/>
  </g>
</svg>
